#!OML:ASF E:/inclinewalkrobotboard/Project1/Captureday1/Session1/subject1.ASF
:FULLY-SPECIFIED
:DEGREES
76
root 0 0 0 1.8019035839612199 -10.890170805378066 0.8576096774046619
lowerback -0.19311129065130683 -1.6252688797217447 -2.665106043974801
upperback -0.6273394032353062 -2.133161039344815 1.7083382799326583
thorax -0.3463159583522416 -1.0441731488352404 3.2081724596114345
lowerneck -24.586912685154964 -1.6343041100449038 -7.769588934675983
upperneck 28.577686861846942 0.34375089702643247 1.9298330253282265
head 13.733434464404324 -0.5975962858938699 2.2391559652239006
rclavicle -5.683269084871585E-15 1.2120724039320176E-15
rhumerus -32.27493115349258 -3.9322801132564207 -80.95123201686005
rradius 30.61585998076416
rwrist 19.52598847559833
rhand -17.653827103931814 8.918244324667098
rfingers 7.125019999999932
rthumb 8.601646779602163 -20.90966662022251
lclavicle -2.115950828590619E-15 1.0609535802791161E-15
lhumerus -19.344046912990866 -2.08219120494488 90.35355229042369
lradius 64.37051214408288
lwrist 1.655893146914209
lhand -28.67936197884016 20.771487925112236
lfingers 7.125020000000025
lthumb -2.036153750371648 50.750019279376076
rfemur -14.33850928714821 0.3239207208566306 21.32158665902586
rtibia 72.78403860516147
rfoot 1.2540525601153547 -5.553835140760625
rtoes 9.204566761811982
lfemur -12.636222763481818 -3.157331396477721 -24.124262337148902
ltibia 28.820031980048803
lfoot -8.880038938188559 -2.1480488431972873
ltoes 9.998175442172867
77
root 0 0 0 1.8312417971201762 -10.858172689955431 0.869622656009519
lowerback -0.19548738926929876 -1.6331739802975491 -2.698929491362512
upperback -0.5953926824030039 -2.1445975508312913 1.7091942987928184
thorax -0.3124080509060866 -1.0511181047277691 3.2285376285353395
lowerneck -24.586973134752053 -1.6388305115529846 -7.827233098931209
upperneck 28.270793742051623 0.31175250011248357 2.046490390263614
head 13.608594279174767 -0.5849182678837311 2.2758442572159923
rclavicle -5.106919782221185E-15 1.100833622044303E-15
rhumerus -32.69731771639104 -4.874318457548401 -80.62523687641249
rradius 30.293055896209335
rwrist 19.88705006236815
rhand -17.435763278958888 8.826898685616525
rfingers 7.125019999999933
rthumb 8.811907468267469 -20.992585851649515
lclavicle -1.5829912875076818E-15 1.019694467147508E-15
lhumerus -19.56892439420063 -2.9572412143841866 90.51736334069435
lradius 64.63365935765513
lwrist 1.8558581263192724
lhand -28.682302809530004 20.94278264682698
lfingers 7.125020000000025
lthumb -2.042713019822302 50.93083019624449
rfemur -22.47747423435326 -0.8085830191346783 20.665686268289253
rtibia 71.41436929958265
rfoot -3.5457335090206907 -6.7409354139081685
rtoes 6.196638328015202
lfemur -6.815751015283577 -3.475843796893309 -26.973319866954178
ltibia 24.292875097172313
lfoot -14.075432440368699 -0.06461874941842627
ltoes 9.276925904853828
78
root 0 0 0 1.8700266274718687 -10.85736799207234 0.8946554037144683
lowerback -0.23729032701637132 -1.657390908582217 -2.7385852221923823
upperback -0.5618355549187256 -2.1768613825594945 1.7105537265939226
thorax -0.25456954468419113 -1.069593319367944 3.2518072251899537
lowerneck -24.70887625281285 -1.6627603455473703 -7.9038374503716415
upperneck 27.91296880628208 0.2629203925080241 2.1772067778470987
head 13.489384086868334 -0.5756952876524137 2.3175193115168367
rclavicle -5.1982719020782395E-15 9.65922327284277E-16
rhumerus -33.00250378985401 -5.094183270192979 -80.25843329999931
rradius 30.01258194311539
rwrist 20.08638676264057
rhand -17.378510397642813 8.790520082746202
rfingers 7.125019999999934
rthumb 8.867218309898492 -21.02167978259643
lclavicle -1.9126034200432005E-15 6.208529001230268E-16
lhumerus -20.11337759909084 -4.045701724681312 90.93701575819688
lradius 64.81452783531675
lwrist 1.9738286910634817
lhand -28.76525533815677 20.95974717572214
lfingers 7.125020000000024
lthumb -2.1274426522954224 50.952439603693456
rfemur -26.970098219716554 -0.9010004665069342 20.1724420018158
rtibia 66.80264593684723
rfoot -5.182960211818179 -7.2878162727183895
rtoes 4.007757065061853
lfemur -1.4348805016579724 -3.4977780441506514 -28.892319184430463
ltibia 21.99128084492746
lfoot -17.50578021314751 0.24230857711442777
ltoes 6.708255083617287
79
root 0 0 0 1.915608168820421 -10.896211844179907 0.9279103235865012
lowerback -0.3087040738012783 -1.697589546203728 -2.7714138928596634
upperback -0.5228789835231917 -2.23022499109349 1.705437347102646
thorax -0.17282611868295505 -1.098987733715303 3.263709105383872
lowerneck -24.923737109807554 -1.6947635247427462 -7.978709960834843
upperneck 27.64830064868886 0.2193914236821357 2.2697608309626256
head 13.424738458295007 -0.5706492301377634 2.3483091432452508
rclavicle -4.1218666214833E-15 8.719341826703712E-16
rhumerus -33.28192319658535 -5.084304506286596 -79.86014089468108
rradius 29.7203345812203
rwrist 20.2567733927077
rhand -17.366615108348903 8.768341467575269
rfingers 7.125019999999937
rthumb 8.878766997507434 -21.034572995880517
lclavicle -2.0986575101684894E-15 5.283745691806626E-16
lhumerus -20.55778198344534 -5.296838013662999 91.22813218058526
lradius 65.1591133935487
lwrist 2.186715953237903
lhand -28.78270519304876 21.064399804098457
lfingers 7.125020000000023
lthumb -2.150119749980604 51.06746649808388
rfemur -29.43557024947276 -0.18668303845429968 18.905249901800506
rtibia 59.18625428766633
rfoot -5.495960417934535 -8.294103401125083
rtoes 1.5987987177304217
lfemur 2.546807386252151 -3.2891373457265995 -30.067858734542124
ltibia 21.109509939312623
lfoot -19.477147201289874 -0.1837516073340204
ltoes 4.054562617909822
80
root 0 0 0 1.962515114494287 -10.948238125510008 0.9609826652922965
lowerback -0.3805640324636821 -1.7414286358157867 -2.7964839295707336
upperback -0.48337303054594777 -2.28818736005172 1.6986076210146164
thorax -0.08868316579617441 -1.1307011452426872 3.2692728893656993
lowerneck -25.161652906274615 -1.724031064859028 -8.039559848756063
upperneck 27.454815110285452 0.18788954204158403 2.3283340733908613
head 13.393567618458443 -0.566451333757155 2.3687221042387923
rclavicle -2.0108774141516287E-15 5.721774761570613E-16
rhumerus -33.537738965232606 -4.884186978919072 -79.40373800500592
rradius 29.39045669078964
rwrist 20.380557368393962
rhand -17.390612560195127 8.784403450767115
rfingers 7.125019999999938
rthumb 8.855303093781524 -21.00763919100695
lclavicle -9.51693467556736E-16 6.04355061640868E-16
lhumerus -20.773866427626377 -6.547361537647779 91.33791041407574
lradius 65.64752010619881
lwrist 2.505321344118839
lhand -28.73989293123511 21.370397222733363
lfingers 7.125020000000023
lthumb -2.1138377867922857 51.38962680986767
rfemur -31.81033774283113 1.2064361732934854 17.306193812659462
rtibia 48.020211859355854
rfoot -5.503036282329036 -9.932625995730913
rtoes -1.0211289325121928
lfemur 6.377093998862141 -3.0682470664933383 -30.874905871449414
ltibia 20.100975048384157
lfoot -20.531175132887306 -0.9242250298367916
ltoes 1.1431728103629446
81
root 0 0 0 2.0055735371097003 -10.987333711349901 0.9933598341239425
lowerback -0.42829685731605127 -1.7795875148362128 -2.813761397468899
upperback -0.4464015321950008 -2.3387893663231467 1.7048440423199813
thorax -0.01961178846549383 -1.1586943586712235 3.284193119871519
lowerneck -25.43891636716017 -1.752238521677353 -8.074923184034942
upperneck 27.178562297255162 0.16029317806720222 2.3784012663846097
head 13.34185414877029 -0.5602204821516816 2.38326780209819
rclavicle 8.451492056357056E-16 -2.4689014965002115E-16
rhumerus -33.7553032410299 -4.414999178362905 -78.88449078491199
rradius 29.029735449220745
rwrist 20.429231313654718
rhand -17.470059963582028 8.852282996717479
rfingers 7.125019999999937
rthumb 8.778104260242621 -20.93062150467442
lclavicle 9.344094650567499E-16 4.767419879610881E-16
lhumerus -20.81925003737016 -7.737062432202559 91.33384497968439
lradius 66.21462481370912
lwrist 2.865389490592119
lhand -28.688039268829822 21.849759128934924
lfingers 7.125020000000023
lthumb -2.067500317649242 51.885688156520445
rfemur -32.828611466909976 2.9976732680746725 17.010675481642707
rtibia 35.68106618797631
rfoot -6.053283438368997 -11.886454199335772
rtoes -3.0523337934084713
lfemur 10.676250757408438 -3.0051158649724856 -31.356857628742382
ltibia 19.55325789345485
lfoot -20.123461933411107 -2.1812356977257368
ltoes -2.080899956698568
82
root 0 0 0 2.012776824531779 -10.983459714971088 1.050597315613935
lowerback -0.4001613877118082 -1.7960556144851834 -2.8085722913369953
upperback -0.45198730865034675 -2.3627548842068777 1.7867955285327537
thorax -0.034821678731322026 -1.1710641558604373 3.3656492782433975
lowerneck -26.177952953585425 -1.8301401138395776 -7.992799153450646
upperneck 26.017779895618858 0.08670108103412888 2.4700103319593145
head 13.06661067220494 -0.5525406888063339 2.3819478124694373
rclavicle 3.744689768393592E-15 -1.4141576081142755E-15
rhumerus -33.957627937260845 -3.3580177381819882 -78.17372780896048
rradius 28.571840374709435
rwrist 20.388929471895985
rhand -17.669746326173517 8.989067255703727
rfingers 7.125019999999935
rthumb 8.585153939673617 -20.79641254855455
lclavicle 2.676677687222261E-15 5.066320746739853E-16
lhumerus -20.53924323388332 -9.29414669957535 91.17163028186228
lradius 66.9931880908706
lwrist 3.3916932421007737
lhand -28.655648228016158 22.66035777301808
lfingers 7.12502000000002
lthumb -2.041848332942531 52.71615259288013
rfemur -33.23902455760461 4.970434936258156 17.895361525746242
rtibia 23.04036800327533
rfoot -7.254836315739404 -13.442762983584457
rtoes -3.999524844902914
lfemur 19.981381713093832 -3.5369314508241727 -30.707147537851995
ltibia 21.17174901221796
lfoot -14.190554325142585 -6.410133560167179
ltoes -9.883689227124195
83
root 0 0 0 1.9825389220800433 -10.933487929429722 1.0800029691527617
lowerback -0.29377983150762854 -1.779630130095547 -2.772395791665276
upperback -0.4825861693820647 -2.3437494729773034 1.8965234121175927
thorax -0.12282156374593434 -1.160088383611587 3.4596344275560673
lowerneck -26.775481186360015 -1.8701654631762463 -7.839913072720675
upperneck 24.862753884436987 0.06398578390585874 2.5012047712448235
head 12.773101254641375 -0.5347813982719026 2.3577587930696993
rclavicle 3.642677787657862E-15 -1.9142776328047106E-15
rhumerus -34.030974679026706 -2.7218883786442007 -77.84532060299753
rradius 28.387354680424632
rwrist 20.36841515706944
rhand -17.78463563988255 9.033479911974137
rfingers 7.125019999999937
rthumb 8.474259618758255 -20.76102138763684
lclavicle 2.6689179875695325E-15 3.7434931391930423E-16
lhumerus -20.29416220657118 -10.06446440183424 90.99122750006589
lradius 67.36635058921576
lwrist 3.6875333531758483
lhand -28.6119370108909 23.046748868948377
lfingers 7.125020000000016
lthumb -2.0025082392431894 53.112421253177196
rfemur -34.10779112935751 5.488067990471427 18.582358864309175
rtibia 19.62938447957126
rfoot -7.133338813739956 -12.963423576654069
rtoes -3.390647657224645
lfemur 21.93574976546658 -3.6366765715243394 -28.02701282290156
ltibia 28.2628252999517
lfoot -7.760176576301684 -10.665167368722692
ltoes -15.788137618998213
